<svg xmlns="http://www.w3.org/2000/svg" width="1200" height="630" viewBox="0 0 1200 630">
  <defs>
    <linearGradient id="bgGrad" x1="0%" y1="0%" x2="100%" y2="100%">
      <stop offset="0%" style="stop-color:#1e1b4b"/>
      <stop offset="50%" style="stop-color:#312e81"/>
      <stop offset="100%" style="stop-color:#4c1d95"/>
    </linearGradient>
    <linearGradient id="tileGrad" x1="0%" y1="0%" x2="100%" y2="100%">
      <stop offset="0%" style="stop-color:#ffffff"/>
      <stop offset="100%" style="stop-color:#e0e7ff"/>
    </linearGradient>
    <linearGradient id="bonusGrad" x1="0%" y1="0%" x2="100%" y2="100%">
      <stop offset="0%" style="stop-color:#fbbf24"/>
      <stop offset="100%" style="stop-color:#f59e0b"/>
    </linearGradient>
    <filter id="shadow" x="-20%" y="-20%" width="140%" height="140%">
      <feDropShadow dx="0" dy="4" stdDeviation="8" flood-color="#000" flood-opacity="0.3"/>
    </filter>
  </defs>

  <!-- Background -->
  <rect width="1200" height="630" fill="url(#bgGrad)"/>

  <!-- Decorative circles -->
  <circle cx="100" cy="100" r="200" fill="#6366f1" opacity="0.1"/>
  <circle cx="1100" cy="530" r="250" fill="#8b5cf6" opacity="0.1"/>

  <!-- Title -->
  <text x="600" y="140" font-family="Arial, sans-serif" font-size="72" font-weight="bold" fill="white" text-anchor="middle" filter="url(#shadow)">LetsWord</text>
  <text x="600" y="190" font-family="Arial, sans-serif" font-size="28" fill="#c4b5fd" text-anchor="middle">Dansk Ordspil</text>

  <!-- Letter tiles grid -->
  <g transform="translate(350, 230)">
    <!-- Row 1 -->
    <rect x="0" y="0" width="70" height="70" rx="12" fill="url(#tileGrad)" filter="url(#shadow)"/>
    <text x="35" y="50" font-family="Arial, sans-serif" font-size="36" font-weight="bold" fill="#4338ca" text-anchor="middle">O</text>

    <rect x="85" y="0" width="70" height="70" rx="12" fill="url(#tileGrad)" filter="url(#shadow)"/>
    <text x="120" y="50" font-family="Arial, sans-serif" font-size="36" font-weight="bold" fill="#4338ca" text-anchor="middle">R</text>

    <rect x="170" y="0" width="70" height="70" rx="12" fill="url(#tileGrad)" filter="url(#shadow)"/>
    <text x="205" y="50" font-family="Arial, sans-serif" font-size="36" font-weight="bold" fill="#4338ca" text-anchor="middle">D</text>

    <rect x="255" y="0" width="70" height="70" rx="12" fill="url(#bonusGrad)" filter="url(#shadow)"/>
    <text x="290" y="50" font-family="Arial, sans-serif" font-size="36" font-weight="bold" fill="white" text-anchor="middle">S</text>

    <rect x="340" y="0" width="70" height="70" rx="12" fill="url(#tileGrad)" filter="url(#shadow)"/>
    <text x="375" y="50" font-family="Arial, sans-serif" font-size="36" font-weight="bold" fill="#4338ca" text-anchor="middle">T</text>

    <rect x="425" y="0" width="70" height="70" rx="12" fill="url(#tileGrad)" filter="url(#shadow)"/>
    <text x="460" y="50" font-family="Arial, sans-serif" font-size="36" font-weight="bold" fill="#4338ca" text-anchor="middle">O</text>

    <!-- Row 2 -->
    <rect x="0" y="85" width="70" height="70" rx="12" fill="url(#tileGrad)" filter="url(#shadow)"/>
    <text x="35" y="135" font-family="Arial, sans-serif" font-size="36" font-weight="bold" fill="#4338ca" text-anchor="middle">R</text>

    <rect x="85" y="85" width="70" height="70" rx="12" fill="url(#tileGrad)" filter="url(#shadow)"/>
    <text x="120" y="135" font-family="Arial, sans-serif" font-size="36" font-weight="bold" fill="#4338ca" text-anchor="middle">M</text>

    <rect x="170" y="85" width="70" height="70" rx="12" fill="url(#bonusGrad)" filter="url(#shadow)"/>
    <text x="205" y="135" font-family="Arial, sans-serif" font-size="36" font-weight="bold" fill="white" text-anchor="middle">E</text>

    <rect x="255" y="85" width="70" height="70" rx="12" fill="url(#tileGrad)" filter="url(#shadow)"/>
    <text x="290" y="135" font-family="Arial, sans-serif" font-size="36" font-weight="bold" fill="#4338ca" text-anchor="middle">A</text>

    <rect x="340" y="85" width="70" height="70" rx="12" fill="url(#tileGrad)" filter="url(#shadow)"/>
    <text x="375" y="135" font-family="Arial, sans-serif" font-size="36" font-weight="bold" fill="#4338ca" text-anchor="middle">N</text>

    <rect x="425" y="85" width="70" height="70" rx="12" fill="url(#tileGrad)" filter="url(#shadow)"/>
    <text x="460" y="135" font-family="Arial, sans-serif" font-size="36" font-weight="bold" fill="#4338ca" text-anchor="middle">I</text>

    <!-- Row 3 -->
    <rect x="0" y="170" width="70" height="70" rx="12" fill="url(#tileGrad)" filter="url(#shadow)"/>
    <text x="35" y="220" font-family="Arial, sans-serif" font-size="36" font-weight="bold" fill="#4338ca" text-anchor="middle">L</text>

    <rect x="85" y="170" width="70" height="70" rx="12" fill="url(#tileGrad)" filter="url(#shadow)"/>
    <text x="120" y="220" font-family="Arial, sans-serif" font-size="36" font-weight="bold" fill="#4338ca" text-anchor="middle">K</text>

    <rect x="170" y="170" width="70" height="70" rx="12" fill="url(#tileGrad)" filter="url(#shadow)"/>
    <text x="205" y="220" font-family="Arial, sans-serif" font-size="36" font-weight="bold" fill="#4338ca" text-anchor="middle">G</text>

    <rect x="255" y="170" width="70" height="70" rx="12" fill="url(#tileGrad)" filter="url(#shadow)"/>
    <text x="290" y="220" font-family="Arial, sans-serif" font-size="36" font-weight="bold" fill="#4338ca" text-anchor="middle">H</text>

    <rect x="340" y="170" width="70" height="70" rx="12" fill="url(#tileGrad)" filter="url(#shadow)"/>
    <text x="375" y="220" font-family="Arial, sans-serif" font-size="36" font-weight="bold" fill="#4338ca" text-anchor="middle">U</text>

    <rect x="425" y="170" width="70" height="70" rx="12" fill="url(#bonusGrad)" filter="url(#shadow)"/>
    <text x="460" y="220" font-family="Arial, sans-serif" font-size="36" font-weight="bold" fill="white" text-anchor="middle">D</text>
  </g>

  <!-- Tagline -->
  <text x="600" y="540" font-family="Arial, sans-serif" font-size="24" fill="#a5b4fc" text-anchor="middle">Dan ord fra tilfældige bogstaver før brættet fyldes op!</text>

  <!-- Play button hint -->
  <rect x="500" y="560" width="200" height="50" rx="25" fill="#6366f1" filter="url(#shadow)"/>
  <text x="600" y="593" font-family="Arial, sans-serif" font-size="20" font-weight="bold" fill="white" text-anchor="middle">Spil Nu!</text>
</svg>
